<svg width="182" height="159" viewBox="0 0 182 159" fill="none" xmlns="http://www.w3.org/2000/svg">
<path d="M151.802 155.183C159.723 147.08 166.105 137.404 170.463 126.652C174.667 116.28 176.987 104.908 176.987 92.9805C176.987 81.0534 174.667 69.6807 170.463 59.309C166.105 48.5571 159.723 38.8809 151.802 30.7781C143.882 22.6752 134.423 16.1458 123.913 11.6874C113.775 7.38665 102.659 5.01296 91.0001 5.01296C79.3415 5.01296 68.2248 7.38665 58.0867 11.6874C47.5767 16.1458 38.1184 22.6752 30.198 30.7781C22.2776 38.8809 15.8952 48.5571 11.5371 59.309C7.33321 69.6807 5.01296 81.0534 5.01296 92.9805C5.01296 104.908 7.33321 116.28 11.5371 126.652C15.8952 137.404 22.2776 147.08 30.198 155.183" stroke="#E5737D" stroke-width="10" stroke-dasharray="2 10"/>
</svg>
