<svg width="20" height="20" viewBox="0 0 20 20" fill="none" xmlns="http://www.w3.org/2000/svg">
<g clip-path="url(#clip0_134_8471)">
<path d="M10 12.4932C8.6193 12.4932 7.5 13.6125 7.5 14.9932V19.9932H12.5V14.9932C12.5 13.6125 11.3807 12.4932 10 12.4932Z" fill="#91C789"/>
<path d="M14.1667 14.9935V19.9935H17.5C18.8807 19.9935 20 18.8742 20 17.4935V9.89271C20.0002 9.45978 19.832 9.04376 19.5308 8.73271L12.4492 1.07685C11.1996 -0.275105 9.09074 -0.358112 7.73879 0.891419C7.67457 0.950794 7.6127 1.01263 7.55336 1.07685L0.48418 8.73021C0.173945 9.04255 -0.000117128 9.46497 5.9134e-08 9.90521V17.4935C5.9134e-08 18.8742 1.1193 19.9935 2.5 19.9935H5.83332V14.9935C5.84891 12.7212 7.68355 10.8656 9.89867 10.8121C12.1879 10.7569 14.1492 12.6441 14.1667 14.9935Z" fill="#91C789"/>
<path d="M10 12.4932C8.6193 12.4932 7.5 13.6125 7.5 14.9932V19.9932H12.5V14.9932C12.5 13.6125 11.3807 12.4932 10 12.4932Z" fill="#91C789"/>
</g>
<defs>
<clipPath id="clip0_134_8471">
<rect width="20" height="20" fill="white"/>
</clipPath>
</defs>
</svg>
