<svg width="20" height="20" viewBox="0 0 20 20" fill="none" xmlns="http://www.w3.org/2000/svg">
<path d="M18.206 3.65173C17.9171 3.32725 17.4393 3.23304 17.017 3.35865C16.117 3.64126 15.0947 3.56799 14.2058 3.09697C13.3168 2.61549 12.739 1.81999 12.539 0.951224C12.439 0.532542 12.1057 0.187128 11.6612 0.124326C10.55 -0.0431469 9.39441 -0.0431469 8.26102 0.134793C7.81656 0.208063 7.49432 0.543009 7.39431 0.961691C7.1943 1.84092 6.62761 2.63642 5.73867 3.12837C4.84974 3.62033 3.82747 3.68313 2.92742 3.41098C2.50518 3.28538 2.02737 3.37958 1.73847 3.70406C1.01621 4.55189 0.449516 5.49393 0.0606077 6.4883C-0.0949557 6.88605 0.0606076 7.32567 0.393958 7.59781C1.09399 8.2049 1.53846 9.07366 1.54957 10.0366C1.54957 11.0101 1.10511 11.8684 0.40507 12.4755C0.0717194 12.7581 -0.0727324 13.1977 0.082831 13.585C0.282841 14.0769 0.527298 14.5689 0.816202 15.0399C1.10511 15.5109 1.43846 15.9505 1.79403 16.3587C2.08293 16.6832 2.56073 16.7774 2.98298 16.6518C3.88302 16.3692 4.9053 16.4425 5.79423 16.9135C6.68317 17.395 7.26097 18.1905 7.46098 19.0592C7.56099 19.4675 7.88323 19.8129 8.32769 19.8757C9.44997 20.0431 10.5945 20.0431 11.7279 19.8652C12.1723 19.7919 12.4946 19.457 12.5946 19.0383C12.7946 18.1591 13.3613 17.3636 14.2502 16.8716C15.1392 16.3797 16.1614 16.3169 17.0615 16.589C17.4948 16.7146 17.9726 16.6204 18.2504 16.2855C18.9727 15.4376 19.5394 14.4956 19.9394 13.5012C20.095 13.1035 19.9394 12.6639 19.606 12.3917C18.8949 11.7951 18.4504 10.9263 18.4393 9.96336C18.4393 8.98993 18.8838 8.13163 19.5838 7.52454C19.9172 7.24193 20.0616 6.80231 19.9061 6.41503C19.706 5.92308 19.4616 5.43113 19.1727 4.96011C18.8949 4.48909 18.5615 4.05994 18.206 3.65173Z" fill="#91C789"/>
<path d="M10.0054 13.1035C11.8219 13.1035 13.2944 11.7163 13.2944 10.0052C13.2944 8.29412 11.8219 6.90698 10.0054 6.90698C8.18887 6.90698 6.71631 8.29412 6.71631 10.0052C6.71631 11.7163 8.18887 13.1035 10.0054 13.1035Z" fill="white"/>
</svg>
