<svg width="22" height="22" viewBox="0 0 22 22" fill="none" xmlns="http://www.w3.org/2000/svg">
<path d="M5.99993 11H10.9999M10.9999 11H15.9998M10.9999 11V16M10.9999 11V6M1 17.0002V5.00024C1 3.60011 1 2.89953 1.27248 2.36475C1.51216 1.89434 1.89433 1.51217 2.36473 1.27248C2.8995 1 3.60008 1 5.00019 1H17C18.4001 1 19.0998 1 19.6346 1.27248C20.105 1.51217 20.4878 1.89434 20.7275 2.36475C21 2.89953 21 3.59959 21 4.99972V16.9998C21 18.3999 21 19.1 20.7275 19.6347C20.4878 20.1051 20.105 20.4881 19.6346 20.7278C19.1004 21 18.4016 21 17.0043 21H4.99608C3.59871 21 2.89898 21 2.36473 20.7278C1.89433 20.4881 1.51216 20.1053 1.27248 19.6349C1 19.1001 1 18.4004 1 17.0002Z" stroke="#DDDDDD" stroke-width="2" stroke-linecap="round" stroke-linejoin="round"/>
</svg>
