<svg width="20" height="20" viewBox="0 0 20 20" fill="none" xmlns="http://www.w3.org/2000/svg">
<g clip-path="url(#clip0_201_3872)">
<path d="M8 14.9932C8 13.8886 8.89544 12.9932 10 12.9932C11.1046 12.9932 12 13.8886 12 14.9932V19.4932H8V14.9932Z" stroke="#DDDDDD"/>
<path d="M14.6667 14.9898L14.6667 14.9935L14.6667 19.4935H17.5C18.6046 19.4935 19.5 18.5981 19.5 17.4935V9.89269V9.89246C19.5001 9.58939 19.3824 9.29818 19.1716 9.08046L19.1637 9.07229L19.1638 9.07221L12.0821 1.41635L12.082 1.4162C11.0199 0.267062 9.22739 0.196481 8.07823 1.25852L14.6667 14.9898ZM14.6667 14.9898C14.6471 12.3636 12.4577 10.2502 9.88661 10.3122C7.39882 10.3723 5.35075 12.4503 5.33333 14.9901H5.33332V14.9935V19.4935M14.6667 14.9898L5.33332 19.4935M5.33332 19.4935H2.5C1.39544 19.4935 0.5 18.5981 0.5 17.4935V9.90519V9.90505C0.499918 9.59688 0.621768 9.30118 0.838929 9.08254L0.84532 9.07611L0.851473 9.06944L7.9206 1.41614C7.92062 1.41612 7.92063 1.4161 7.92065 1.41608C7.97094 1.36166 8.02349 1.30913 8.07816 1.25858L5.33332 19.4935Z" stroke="#DDDDDD"/>
<path d="M8 14.9932C8 13.8886 8.89544 12.9932 10 12.9932C11.1046 12.9932 12 13.8886 12 14.9932V19.4932H8V14.9932Z" stroke="#DDDDDD"/>
</g>
<defs>
<clipPath id="clip0_201_3872">
<rect width="20" height="20" fill="white"/>
</clipPath>
</defs>
</svg>
