<svg width="185" height="159" viewBox="0 0 185 159" fill="none" xmlns="http://www.w3.org/2000/svg">
<path d="M154.227 155.464C162.277 147.346 168.765 137.652 173.194 126.881C177.468 116.491 179.826 105.097 179.826 93.1486C179.826 81.2 177.468 69.8067 173.194 59.4163C168.765 48.6449 162.277 38.9512 154.227 30.8337C146.176 22.7163 136.562 16.175 125.879 11.7085C115.574 7.40001 104.274 5.02203 92.424 5.02203C80.5736 5.02203 69.274 7.40001 58.9691 11.7085C48.2862 16.175 38.6722 22.7163 30.6215 30.8337C22.5708 38.9512 16.0833 48.6449 11.6535 59.4163C7.38045 69.8067 5.02203 81.2 5.02203 93.1486C5.02203 105.097 7.38045 116.491 11.6535 126.881C16.0833 137.652 22.5708 147.346 30.6215 155.464" stroke="white" stroke-width="10" stroke-dasharray="2 10"/>
</svg>
