<svg width="22" height="22" viewBox="0 0 22 22" fill="none" xmlns="http://www.w3.org/2000/svg">
<path d="M19.5148 4.4117C19.215 4.07501 18.7192 3.97726 18.2811 4.10759C17.3472 4.40084 16.2864 4.32481 15.364 3.83607C14.4417 3.33646 13.8421 2.51103 13.6346 1.60957C13.5308 1.17513 13.1849 0.816723 12.7237 0.751558C11.5707 0.577783 10.3716 0.577783 9.19558 0.762419C8.73439 0.838445 8.40003 1.186 8.29626 1.62043C8.08872 2.53275 7.5007 3.35818 6.57832 3.86865C5.65593 4.37911 4.59519 4.44428 3.66127 4.16189C3.22314 4.03156 2.72736 4.12931 2.42758 4.466C1.67815 5.34574 1.09012 6.32322 0.686581 7.35501C0.525164 7.76773 0.686581 8.22389 1.03248 8.50627C1.75885 9.13621 2.22005 10.0377 2.23158 11.0369C2.23158 12.0469 1.77038 12.9375 1.04401 13.5675C0.698111 13.8607 0.548224 14.3169 0.709641 14.7187C0.917178 15.2292 1.17083 15.7397 1.47061 16.2284C1.77038 16.7171 2.11628 17.1733 2.48523 17.5969C2.78501 17.9336 3.28079 18.0313 3.71892 17.901C4.65284 17.6077 5.71358 17.6838 6.63597 18.1725C7.55835 18.6721 8.1579 19.4976 8.36544 20.399C8.46921 20.8226 8.80357 21.181 9.26476 21.2462C10.4293 21.4199 11.6168 21.4199 12.7929 21.2353C13.2541 21.1593 13.5884 20.8117 13.6922 20.3773C13.8997 19.465 14.4878 18.6395 15.4102 18.1291C16.3325 17.6186 17.3933 17.5534 18.3272 17.8358C18.7769 17.9662 19.2726 17.8684 19.5609 17.5209C20.3103 16.6411 20.8983 15.6636 21.3134 14.6318C21.4748 14.2191 21.3134 13.763 20.9675 13.4806C20.2296 12.8615 19.7684 11.9601 19.7569 10.9608C19.7569 9.95078 20.2181 9.06018 20.9445 8.43025C21.2904 8.137 21.4402 7.68084 21.2788 7.27899C21.0713 6.76852 20.8176 6.25806 20.5179 5.76931C20.2296 5.28057 19.8837 4.83527 19.5148 4.4117Z" stroke="#DDDDDD" stroke-width="1.2" stroke-miterlimit="10" stroke-linecap="round" stroke-linejoin="round"/>
<path d="M11.0056 14.2191C12.8904 14.2191 14.4184 12.7798 14.4184 11.0043C14.4184 9.22878 12.8904 7.78945 11.0056 7.78945C9.12071 7.78945 7.59274 9.22878 7.59274 11.0043C7.59274 12.7798 9.12071 14.2191 11.0056 14.2191Z" stroke="#DDDDDD" stroke-width="1.2" stroke-miterlimit="10" stroke-linecap="round" stroke-linejoin="round"/>
</svg>
