<svg width="20" height="20" viewBox="0 0 20 20" fill="none" xmlns="http://www.w3.org/2000/svg">
<path d="M0 4.00024V16.0002C0 17.4004 0 18.1001 0.27248 18.6349C0.51216 19.1053 0.894329 19.4881 1.36473 19.7278C1.89898 20 2.59871 20 3.99608 20H16.0043C17.4016 20 18.1004 20 18.6346 19.7278C19.105 19.4881 19.4878 19.1051 19.7275 18.6347C20 18.1 20 17.3999 20 15.9998V3.99972C20 2.59959 20 1.89953 19.7275 1.36475C19.4878 0.894341 19.105 0.512167 18.6346 0.272484C18.0998 0 17.4001 0 16 0H4.00019C2.60008 0 1.8995 0 1.36473 0.272484C0.894329 0.512167 0.51216 0.894341 0.27248 1.36475C0 1.89953 0 2.60011 0 4.00024Z" fill="#91C789"/>
<path d="M4 10H10M10 10H16M10 10V16M10 10V4" stroke="white" stroke-linecap="round" stroke-linejoin="round"/>
</svg>
