<svg width="20" height="20" viewBox="0 0 20 20" fill="none" xmlns="http://www.w3.org/2000/svg">
<g clip-path="url(#clip0_150_383)">
<path d="M19.1667 18.3333H2.5C2.27899 18.3333 2.06702 18.2455 1.91074 18.0893C1.75446 17.933 1.66667 17.721 1.66667 17.5V0.833333C1.66667 0.61232 1.57887 0.400358 1.42259 0.244078C1.26631 0.0877974 1.05435 0 0.833333 0C0.61232 0 0.400358 0.0877974 0.244078 0.244078C0.0877974 0.400358 0 0.61232 0 0.833333L0 17.5C0 18.163 0.263392 18.7989 0.732233 19.2678C1.20107 19.7366 1.83696 20 2.5 20H19.1667C19.3877 20 19.5996 19.9122 19.7559 19.7559C19.9122 19.5996 20 19.3877 20 19.1667C20 18.9457 19.9122 18.7337 19.7559 18.5774C19.5996 18.4211 19.3877 18.3333 19.1667 18.3333Z" fill="#91C789"/>
<path d="M12.5003 16.6672C12.7213 16.6672 12.9333 16.5794 13.0896 16.4232C13.2459 16.2669 13.3337 16.0549 13.3337 15.8339V10.0006C13.3337 9.77956 13.2459 9.56759 13.0896 9.41131C12.9333 9.25503 12.7213 9.16724 12.5003 9.16724C12.2793 9.16724 12.0674 9.25503 11.9111 9.41131C11.7548 9.56759 11.667 9.77956 11.667 10.0006V15.8339C11.667 16.0549 11.7548 16.2669 11.9111 16.4232C12.0674 16.5794 12.2793 16.6672 12.5003 16.6672Z" fill="#91C789"/>
<path d="M5.83333 16.6672C6.05435 16.6672 6.26631 16.5794 6.42259 16.4232C6.57887 16.2669 6.66666 16.0549 6.66666 15.8339V10.0006C6.66666 9.77956 6.57887 9.56759 6.42259 9.41131C6.26631 9.25503 6.05435 9.16724 5.83333 9.16724C5.61232 9.16724 5.40036 9.25503 5.24408 9.41131C5.0878 9.56759 5 9.77956 5 10.0006V15.8339C5 16.0549 5.0878 16.2669 5.24408 16.4232C5.40036 16.5794 5.61232 16.6672 5.83333 16.6672Z" fill="#91C789"/>
<path d="M15.8333 16.6667C16.0544 16.6667 16.2663 16.5789 16.4226 16.4226C16.5789 16.2663 16.6667 16.0543 16.6667 15.8333V5.83333C16.6667 5.61232 16.5789 5.40036 16.4226 5.24408C16.2663 5.0878 16.0544 5 15.8333 5C15.6123 5 15.4004 5.0878 15.2441 5.24408C15.0878 5.40036 15 5.61232 15 5.83333V15.8333C15 16.0543 15.0878 16.2663 15.2441 16.4226C15.4004 16.5789 15.6123 16.6667 15.8333 16.6667Z" fill="#91C789"/>
<path d="M9.16635 16.6667C9.38736 16.6667 9.59932 16.5789 9.75561 16.4226C9.91189 16.2663 9.99968 16.0543 9.99968 15.8333V5.83333C9.99968 5.61232 9.91189 5.40036 9.75561 5.24408C9.59932 5.0878 9.38736 5 9.16635 5C8.94533 5 8.73337 5.0878 8.57709 5.24408C8.42081 5.40036 8.33301 5.61232 8.33301 5.83333V15.8333C8.33301 16.0543 8.42081 16.2663 8.57709 16.4226C8.73337 16.5789 8.94533 16.6667 9.16635 16.6667Z" fill="#91C789"/>
</g>
<defs>
<clipPath id="clip0_150_383">
<rect width="20" height="20" fill="white"/>
</clipPath>
</defs>
</svg>
