<svg width="26" height="33" viewBox="0 0 26 33" fill="none" xmlns="http://www.w3.org/2000/svg">
<path fill-rule="evenodd" clip-rule="evenodd" d="M26 26.5801C26 31.9902 18.5808 32.6156 13.0016 32.6156L12.6024 32.6152C9.04781 32.6066 0 32.3822 0 26.5472C0 21.2476 7.12103 20.5393 12.6577 20.5126L13.4009 20.5121C16.9552 20.5207 26 20.7452 26 26.5801ZM13.0016 22.9739C6.00758 22.9739 2.46212 24.1754 2.46212 26.5472C2.46212 28.9404 6.00758 30.1534 13.0016 30.1534C19.9941 30.1534 23.5379 28.9519 23.5379 26.5801C23.5379 24.1869 19.9941 22.9739 13.0016 22.9739ZM13.0016 0C17.8077 0 21.7159 3.90985 21.7159 8.71591C21.7159 13.522 17.8077 17.4302 13.0016 17.4302H12.9491C8.1529 17.4154 4.26768 13.5039 4.28404 8.71099C4.28404 3.90985 8.19394 0 13.0016 0ZM13.0016 2.34394C9.48737 2.34394 6.628 5.20164 6.628 8.71591C6.61654 12.2187 9.45455 15.0747 12.954 15.0879L13.0016 16.2598V15.0879C16.5143 15.0879 19.372 12.2285 19.372 8.71591C19.372 5.20164 16.5143 2.34394 13.0016 2.34394Z" fill="#0B0B0B"/>
</svg>
